<svg version="1.1" xmlns="http://www.w3.org/2000/svg" xmlns:xlink="http://www.w3.org/1999/xlink" width="720" height="540" viewBox="0,0,720,540"><defs><linearGradient x1="199.31575" y1="180" x2="280.68425" y2="180" gradientUnits="userSpaceOnUse" id="color-1"><stop offset="0" stop-color="#0031ff"/><stop offset="1" stop-color="#00ddff"/></linearGradient><linearGradient x1="146" y1="165" x2="334" y2="165" gradientUnits="userSpaceOnUse" id="color-2"><stop offset="0" stop-color="#00ddff"/><stop offset="1" stop-color="#0031ff"/></linearGradient><linearGradient x1="146" y1="195" x2="334" y2="195" gradientUnits="userSpaceOnUse" id="color-3"><stop offset="0" stop-color="#00ddff"/><stop offset="1" stop-color="#0031ff"/></linearGradient><clipPath id="clip-1"><rect x="-240" y="-180" transform="scale(0.5,0.5)" width="1440" height="1080" fill="none" fill-rule="nonzero" stroke-width="0.5" stroke-linecap="butt"/></clipPath></defs><g transform="translate(120,90)"><g clip-path="url(#clip-1)" data-paper-data="{&quot;isPaintingLayer&quot;:true}" stroke="none" stroke-linejoin="miter" stroke-miterlimit="10" stroke-dasharray="" stroke-dashoffset="0" style="mix-blend-mode: normal"><path d="M-240,-180h960v720h-960z" fill-opacity="0" fill="#000000" fill-rule="evenodd" stroke-width="1" stroke-linecap="square"/><path d="M142.2021,166.51181h266.80316v42.01575h-266.80316z" fill-opacity="0" fill="#000000" fill-rule="evenodd" stroke-width="1" stroke-linecap="square"/><path d="M201.00325,185.99219v-1.67187h-1.6875v-10.3125h1.875v10.125h1.5v-3.39062h1.71875v-5.04687h1.85938v5.04688h1.71875v3.39063h1.51563v-10.125h1.85938v10.3125h-1.67187v1.67188h-1.89062v-1.67187h-1.71875v-3.39062h-1.48437v3.39063h-1.71875v1.67188zM214.7526,185.99219v-1.67187h-1.6875v-5.25h1.6875v-1.6875h5.26563v1.6875h1.71875v1.85938h-1.90625v-1.6875h-4.89062v1.5h3.40625v1.875h-3.40625v1.51563h4.89063v-1.71875h1.90625v1.89063h-1.71875v1.6875zM223.99767,185.99219v-11.98437h1.875v11.98438zM228.13936,185.99219v-11.98437h1.875v11.98438zM237.6998,185.99219v-1.67187h-1.6875v-5.25h1.6875v-1.6875h5.09375v-3.375h1.89063v10.3125h-1.71875v1.67188zM237.8873,184.13281h4.89063v-4.89062h-4.89062zM248.25904,185.99219v-1.67187h-1.6875v-5.25h1.6875v-1.6875h5.26563v1.6875h1.71875v5.25h-1.71875v1.67188zM248.44654,184.13281h4.89063v-4.89062h-4.89062zM257.50411,185.99219v-8.60937h6.95313v1.6875h1.71875v6.92188h-1.90625v-6.75h-4.89062v6.75zM269.56418,185.99219v-1.67187h-1.6875v-5.25h1.6875v-1.6875h5.26563v1.6875h1.71875v1.85938h-1.90625v-1.6875h-4.89062v1.5h3.40625v1.875h-3.40625v1.51563h4.89063v-1.71875h1.90625v1.89063h-1.71875v1.6875zM278.80925,182.61719v-8.60937h1.875v8.60938zM278.80925,185.99219v-1.85937h1.875v1.85938z" fill="url(#color-1)" fill-rule="nonzero" stroke-width="1" stroke-linecap="square"/><path d="M146,168.375v-6.75h188v6.75z" fill="url(#color-2)" fill-rule="nonzero" stroke-width="0" stroke-linecap="butt"/><path d="M146,198.375v-6.75h188v6.75z" fill="url(#color-3)" fill-rule="nonzero" stroke-width="0" stroke-linecap="butt"/></g></g></svg>